<svg xmlns="http://www.w3.org/2000/svg" width="1024" height="1024" viewBox="0 0 1024 1024"><rect x="80" y="80" width="864" height="864" rx="196" fill="#202228"/><rect x="82" y="82" width="860" height="860" rx="194" fill="none" stroke="#393c43" stroke-width="4"/><g transform="translate(192 192) scale(2.5)" color="#f4f4f5"><g fill="none" stroke="currentColor" stroke-width="28" stroke-linecap="round"><path d="M104 48H76C60.536 48 48 60.536 48 76V104"/><path d="M152 48H180C195.464 48 208 60.536 208 76V104"/><path d="M208 152V180C208 195.464 195.464 208 180 208H152"/><path d="M104 208H76C60.536 208 48 195.464 48 180V152"/></g><rect x="104" y="104" width="48" height="48" rx="14" fill="currentColor"/></g></svg>
